<?xml version="1.0" encoding="UTF-8"?>
<svg width="128" height="128" viewBox="0 0 128 128" fill="none" xmlns="http://www.w3.org/2000/svg">
  <!-- Background Circle -->
  <circle cx="64" cy="64" r="60" fill="#409EFF"/>

  <!-- Download Arrow -->
  <g transform="translate(64, 64)">
    <!-- Arrow Shaft -->
    <rect x="-8" y="-30" width="16" height="40" rx="2" fill="white"/>

    <!-- Arrow Head -->
    <path d="M -24 10 L 0 34 L 24 10 L 18 4 L 0 22 L -18 4 Z" fill="white"/>

    <!-- Download Tray -->
    <path d="M -28 30 L -28 38 Q -28 40 -26 40 L 26 40 Q 28 40 28 38 L 28 30 L 20 30 L 20 32 L -20 32 L -20 30 Z" fill="white"/>
  </g>

  <!-- Accent Elements (speed lines) -->
  <path d="M 20 20 L 30 20" stroke="white" stroke-width="3" stroke-linecap="round" opacity="0.6"/>
  <path d="M 25 30 L 35 30" stroke="white" stroke-width="3" stroke-linecap="round" opacity="0.6"/>
  <path d="M 20 40 L 30 40" stroke="white" stroke-width="3" stroke-linecap="round" opacity="0.6"/>

  <path d="M 98 88 L 108 88" stroke="white" stroke-width="3" stroke-linecap="round" opacity="0.6"/>
  <path d="M 93 98 L 103 98" stroke="white" stroke-width="3" stroke-linecap="round" opacity="0.6"/>
  <path d="M 98 108 L 108 108" stroke="white" stroke-width="3" stroke-linecap="round" opacity="0.6"/>
</svg>
